<?xml version="1.0" encoding="UTF-8"?>

<!DOCTYPE svg PUBLIC '-//W3C//DTD SVG 1.0//EN' 'http://www.w3.org/TR/2001/REC-SVG-20010904/DTD/svg10.dtd'>
<svg fill-opacity="1" xmlns:xlink="http://www.w3.org/1999/xlink" color-rendering="auto" color-interpolation="auto" text-rendering="auto" stroke="black" stroke-linecap="square" width="800" stroke-miterlimit="10" shape-rendering="auto" stroke-opacity="1" fill="black" stroke-dasharray="none" font-weight="normal" stroke-width="1" height="1447" xmlns="http://www.w3.org/2000/svg" font-family="&apos;Dialog&apos;" font-style="normal" stroke-linejoin="miter" font-size="12" stroke-dashoffset="0" image-rendering="auto">
  <!--Generated by GenealogyJ with Batik SVG Generator-->
  <defs id="genericDefs" />
  <g>
    <defs id="defs1">
      <clipPath clipPathUnits="userSpaceOnUse" id="clipPath1">
        <path d="M0 7.5 L0 56.5 C0 60.6421 3.3579 64 7.5 64 L102.5 64 C106.6421 64 110 60.6421 110 56.5 L110 7.5 C110 3.3579 106.6421 0 102.5 0 L7.5 0 C3.3579 0 0 3.3579 0 7.5 Z" />
      </clipPath>
      <clipPath clipPathUnits="userSpaceOnUse" id="clipPath2">
        <path d="M0 7.5 L0 76.5 C0 80.6421 3.3579 84 7.5 84 L102.5 84 C106.6421 84 110 80.6421 110 76.5 L110 7.5 C110 3.3579 106.6421 0 102.5 0 L7.5 0 C3.3579 0 0 3.3579 0 7.5 Z" />
      </clipPath>
      <clipPath clipPathUnits="userSpaceOnUse" id="clipPath3">
        <path d="M0 7.5 L0 66.5 C0 70.6421 3.3579 74 7.5 74 L102.5 74 C106.6421 74 110 70.6421 110 66.5 L110 7.5 C110 3.3579 106.6421 0 102.5 0 L7.5 0 C3.3579 0 0 3.3579 0 7.5 Z" />
      </clipPath>
      <clipPath clipPathUnits="userSpaceOnUse" id="clipPath4">
        <path d="M0 7.5 L0 66.5 C0 70.6421 3.3579 74 7.5 74 L126.5 74 C130.6421 74 134 70.6421 134 66.5 L134 7.5 C134 3.3579 130.6421 0 126.5 0 L7.5 0 C3.3579 0 0 3.3579 0 7.5 Z" />
      </clipPath>
      <clipPath clipPathUnits="userSpaceOnUse" id="clipPath5">
        <path d="M0 7.5 L0 76.5 C0 80.6421 3.3579 84 7.5 84 L133.5 84 C137.6421 84 141 80.6421 141 76.5 L141 7.5 C141 3.3579 137.6421 0 133.5 0 L7.5 0 C3.3579 0 0 3.3579 0 7.5 Z" />
      </clipPath>
    </defs>
    <g fill="white" stroke="white">
      <rect width="800" x="0" height="1447" y="0" stroke="none" />
      <text x="627" font-size="10" y="1440" fill="black" stroke="none" xml:space="preserve">Last change: 5 Jul 2015, 10:44:38</text>
      <rect width="800" x="0" height="1432" y="0" stroke="none" />
    </g>
    <g font-size="54" font-weight="bold">
      <text xml:space="preserve" x="108" y="50" stroke="none">Mooney, James (I9)</text>
      <rect x="0" y="0" transform="translate(0,64)" fill="white" width="800" height="1368" stroke="none" stroke-width="2" />
      <line transform="translate(0,64)" fill="none" x1="400" x2="400" y1="1274" y2="1180" stroke-width="2" />
      <rect x="0" y="0" transform="translate(345,1338)" fill="rgb(255,255,51)" width="110" rx="7.5" ry="7.5" height="64" stroke="none" stroke-width="2" />
      <text x="35" font-size="12" y="14" transform="translate(345,1338)" clip-path="url(#clipPath1)" stroke="none" stroke-width="2" xml:space="preserve">James</text>
      <text x="29" font-size="12" y="26" transform="translate(345,1338)" clip-path="url(#clipPath1)" stroke="none" stroke-width="2" xml:space="preserve">Mooney</text>
      <text x="5" font-size="10" y="38" transform="translate(345,1338)" clip-path="url(#clipPath1)" stroke="none" font-weight="normal" stroke-width="2" xml:space="preserve">*</text>
      <text x="13" font-size="10" y="38" transform="translate(345,1338)" clip-path="url(#clipPath1)" stroke="none" font-weight="normal" stroke-width="2" xml:space="preserve">17 Apr 2013</text>
      <text x="13" font-size="10" y="48" transform="translate(345,1338)" clip-path="url(#clipPath1)" stroke="none" font-weight="normal" stroke-width="2" xml:space="preserve">Celbridge</text>
    </g>
    <g stroke-width="2" font-size="10" font-family="sans-serif" transform="translate(345,1338)">
      <text xml:space="preserve" x="96" y="59" clip-path="url(#clipPath1)" stroke="none">♂</text>
      <rect x="0" y="0" fill="none" width="110" rx="7.5" ry="7.5" height="64" />
    </g>
    <g stroke-width="2" font-size="10" font-family="sans-serif" transform="matrix(1,0,0,1,0,64)">
      <line y2="1180" fill="none" x1="455" x2="455" y1="1170" />
      <line y2="1180" fill="none" x1="400" x2="465" y1="1180" />
      <line y2="958" fill="none" x1="400" x2="400" y1="1079" />
      <line y2="1180" fill="none" x1="465" x2="465" y1="1190" />
      <rect x="0" y="0" transform="translate(345,1079)" fill="rgb(255,221,0)" width="110" rx="7.5" ry="7.5" height="64" stroke="none" />
      <text x="38" font-size="12" y="14" transform="translate(345,1079)" clip-path="url(#clipPath1)" font-family="&apos;Dialog&apos;" stroke="none" font-weight="bold" xml:space="preserve">Brian</text>
      <text x="29" font-size="12" y="26" transform="translate(345,1079)" clip-path="url(#clipPath1)" font-family="&apos;Dialog&apos;" stroke="none" font-weight="bold" xml:space="preserve">Mooney</text>
      <text x="5" y="38" transform="translate(345,1079)" clip-path="url(#clipPath1)" font-family="&apos;Dialog&apos;" stroke="none" xml:space="preserve">*</text>
      <text x="13" y="38" transform="translate(345,1079)" clip-path="url(#clipPath1)" font-family="&apos;Dialog&apos;" stroke="none" xml:space="preserve">16 Jan 1985</text>
      <text x="13" y="48" transform="translate(345,1079)" clip-path="url(#clipPath1)" font-family="&apos;Dialog&apos;" stroke="none" xml:space="preserve">Ballyfermot</text>
      <text x="96" y="59" transform="translate(345,1079)" clip-path="url(#clipPath1)" stroke="none" xml:space="preserve">♂</text>
      <rect x="0" y="0" transform="translate(345,1079)" fill="none" width="110" rx="7.5" ry="7.5" height="64" />
    </g>
    <g font-size="10" transform="matrix(1,0,0,1,0,64) translate(405,1143)" fill="rgb(255,221,0)" font-family="sans-serif" stroke="rgb(255,221,0)" stroke-width="2">
      <rect x="0" y="0" width="100" rx="2.5" ry="2.5" height="27" stroke="none" />
      <rect x="0" y="0" fill="none" width="100" rx="2.5" ry="2.5" height="27" stroke="black" />
    </g>
    <g font-size="10" stroke-width="2" transform="matrix(1,0,0,1,0,64)">
      <line y2="1069" fill="none" x1="510" x2="510" y1="1079" />
      <rect x="0" y="0" transform="translate(455,1079)" fill="rgb(255,221,0)" width="110" rx="7.5" ry="7.5" height="64" stroke="none" />
      <text x="41" font-size="12" y="14" transform="translate(455,1079)" clip-path="url(#clipPath1)" stroke="none" font-weight="bold" xml:space="preserve">Ling</text>
      <text x="42" font-size="12" y="26" transform="translate(455,1079)" clip-path="url(#clipPath1)" stroke="none" font-weight="bold" xml:space="preserve">Gao</text>
      <text x="5" y="38" transform="translate(455,1079)" clip-path="url(#clipPath1)" stroke="none" xml:space="preserve">*</text>
      <text x="13" y="38" transform="translate(455,1079)" clip-path="url(#clipPath1)" stroke="none" xml:space="preserve">5 Nov 1983</text>
      <text x="13" y="48" transform="translate(455,1079)" clip-path="url(#clipPath1)" stroke="none" xml:space="preserve">SiJing</text>
      <text x="96" y="59" transform="translate(455,1079)" clip-path="url(#clipPath1)" font-family="sans-serif" stroke="none" xml:space="preserve">♀</text>
      <rect x="0" y="0" transform="translate(455,1079)" fill="none" width="110" rx="7.5" ry="7.5" height="64" />
    </g>
    <g stroke-width="2" font-size="10" font-family="sans-serif" transform="matrix(1,0,0,1,0,64)">
      <line y2="1069" fill="none" x1="570" x2="570" y1="1059" />
      <line y2="1069" fill="none" x1="510" x2="570" y1="1069" />
      <line y2="716" fill="none" x1="515" x2="515" y1="968" />
      <rect x="0" y="0" transform="translate(460,968)" fill="rgb(206,170,49)" width="110" rx="7.5" ry="7.5" height="64" stroke="none" />
      <text x="22" font-size="12" y="14" transform="translate(460,968)" clip-path="url(#clipPath1)" font-family="&apos;Dialog&apos;" stroke="none" font-weight="bold" xml:space="preserve">Chengsan</text>
      <text x="36" font-size="12" y="26" transform="translate(460,968)" clip-path="url(#clipPath1)" font-family="&apos;Dialog&apos;" stroke="none" font-weight="bold" xml:space="preserve">Wang</text>
      <text x="5" y="38" transform="translate(460,968)" clip-path="url(#clipPath1)" font-family="&apos;Dialog&apos;" stroke="none" xml:space="preserve">*</text>
      <text x="13" y="38" transform="translate(460,968)" clip-path="url(#clipPath1)" font-family="&apos;Dialog&apos;" stroke="none" xml:space="preserve">7 Jul 1957</text>
      <text x="13" y="48" transform="translate(460,968)" clip-path="url(#clipPath1)" font-family="&apos;Dialog&apos;" stroke="none" xml:space="preserve">SongJiang</text>
      <text x="96" y="59" transform="translate(460,968)" clip-path="url(#clipPath1)" stroke="none" xml:space="preserve">♂</text>
      <rect x="0" y="0" transform="translate(460,968)" fill="none" width="110" rx="7.5" ry="7.5" height="64" />
    </g>
    <g font-size="10" transform="matrix(1,0,0,1,0,64) translate(520,1032)" fill="rgb(206,170,49)" font-family="sans-serif" stroke="rgb(206,170,49)" stroke-width="2">
      <rect x="0" y="0" width="100" rx="2.5" ry="2.5" height="27" stroke="none" />
      <rect x="0" y="0" fill="none" width="100" rx="2.5" ry="2.5" height="27" stroke="black" />
    </g>
    <g font-size="10" stroke-width="2" transform="matrix(1,0,0,1,0,64)">
      <line y2="958" fill="none" x1="625" x2="625" y1="968" />
      <rect x="0" y="0" transform="translate(570,968)" fill="rgb(206,170,49)" width="110" rx="7.5" ry="7.5" height="64" stroke="none" />
      <text x="43" font-size="12" y="14" transform="translate(570,968)" clip-path="url(#clipPath1)" stroke="none" font-weight="bold" xml:space="preserve">Min</text>
      <text x="42" font-size="12" y="26" transform="translate(570,968)" clip-path="url(#clipPath1)" stroke="none" font-weight="bold" xml:space="preserve">Gao</text>
      <text x="5" y="38" transform="translate(570,968)" clip-path="url(#clipPath1)" stroke="none" xml:space="preserve">*</text>
      <text x="13" y="38" transform="translate(570,968)" clip-path="url(#clipPath1)" stroke="none" xml:space="preserve">15 Nov 1958</text>
      <text x="13" y="48" transform="translate(570,968)" clip-path="url(#clipPath1)" stroke="none" xml:space="preserve">SongJiang</text>
      <text x="96" y="59" transform="translate(570,968)" clip-path="url(#clipPath1)" font-family="sans-serif" stroke="none" xml:space="preserve">♀</text>
      <rect x="0" y="0" transform="translate(570,968)" fill="none" width="110" rx="7.5" ry="7.5" height="64" />
    </g>
    <g stroke-width="2" font-size="10" font-family="sans-serif" transform="matrix(1,0,0,1,0,64)">
      <line y2="958" fill="none" x1="680" x2="680" y1="948" />
      <line y2="958" fill="none" x1="625" x2="680" y1="958" />
      <line y2="827" fill="none" x1="625" x2="625" y1="857" />
      <rect x="0" y="0" transform="translate(570,857)" fill="rgb(255,221,221)" width="110" rx="7.5" ry="7.5" height="64" stroke="none" />
      <text x="26" font-size="12" y="14" transform="translate(570,857)" clip-path="url(#clipPath1)" font-family="&apos;Dialog&apos;" stroke="none" font-weight="bold" xml:space="preserve">BaiLiang</text>
      <text x="42" font-size="12" y="26" transform="translate(570,857)" clip-path="url(#clipPath1)" font-family="&apos;Dialog&apos;" stroke="none" font-weight="bold" xml:space="preserve">Gao</text>
      <text x="5" y="38" transform="translate(570,857)" clip-path="url(#clipPath1)" font-family="&apos;Dialog&apos;" stroke="none" xml:space="preserve">*</text>
      <text x="13" y="38" transform="translate(570,857)" clip-path="url(#clipPath1)" font-family="&apos;Dialog&apos;" stroke="none" xml:space="preserve">11 Jul 1932</text>
      <text x="13" y="48" transform="translate(570,857)" clip-path="url(#clipPath1)" font-family="&apos;Dialog&apos;" stroke="none" xml:space="preserve">QiDong</text>
      <text x="96" y="59" transform="translate(570,857)" clip-path="url(#clipPath1)" stroke="none" xml:space="preserve">♂</text>
      <rect x="0" y="0" transform="translate(570,857)" fill="none" width="110" rx="7.5" ry="7.5" height="64" />
    </g>
    <g font-size="10" transform="matrix(1,0,0,1,0,64) translate(630,921)" fill="rgb(255,221,221)" font-family="sans-serif" stroke="rgb(255,221,221)" stroke-width="2">
      <rect x="0" y="0" width="100" rx="2.5" ry="2.5" height="27" stroke="none" />
      <rect x="0" y="0" fill="none" width="100" rx="2.5" ry="2.5" height="27" stroke="black" />
    </g>
    <g fill="rgb(255,221,221)" font-size="10" stroke-width="2" transform="matrix(1,0,0,1,0,64) translate(680,857)" stroke="rgb(255,221,221)">
      <rect x="0" y="0" width="110" rx="7.5" ry="7.5" height="64" stroke="none" />
    </g>
    <g stroke-width="2" font-weight="bold" transform="matrix(1,0,0,1,0,64) translate(680,857)">
      <text xml:space="preserve" x="35" y="14" clip-path="url(#clipPath1)" stroke="none">DeQin</text>
      <text xml:space="preserve" x="36" y="26" clip-path="url(#clipPath1)" stroke="none">Wang</text>
      <text x="5" font-size="10" y="38" clip-path="url(#clipPath1)" stroke="none" font-weight="normal" xml:space="preserve">*</text>
      <text x="13" font-size="10" y="38" clip-path="url(#clipPath1)" stroke="none" font-weight="normal" xml:space="preserve">5 Dec 1934</text>
      <text x="13" font-size="10" y="48" clip-path="url(#clipPath1)" stroke="none" font-weight="normal" xml:space="preserve">QiDong</text>
      <text x="96" font-size="10" y="59" clip-path="url(#clipPath1)" font-family="sans-serif" stroke="none" font-weight="normal" xml:space="preserve">♀</text>
      <rect x="0" y="0" fill="none" width="110" rx="7.5" ry="7.5" height="64" />
    </g>
    <g stroke-width="2" font-size="10" font-family="sans-serif" transform="matrix(1,0,0,1,0,64)">
      <line y2="827" fill="none" x1="680" x2="680" y1="817" />
      <line y2="827" fill="none" x1="625" x2="680" y1="827" />
      <rect x="0" y="0" transform="translate(570,726)" fill="rgb(239,174,198)" width="110" rx="7.5" ry="7.5" height="64" stroke="none" />
      <text x="36" font-size="12" y="14" transform="translate(570,726)" clip-path="url(#clipPath1)" font-family="&apos;Dialog&apos;" stroke="none" font-weight="bold" xml:space="preserve">YunTi</text>
      <text x="42" font-size="12" y="26" transform="translate(570,726)" clip-path="url(#clipPath1)" font-family="&apos;Dialog&apos;" stroke="none" font-weight="bold" xml:space="preserve">Gao</text>
      <text x="96" y="59" transform="translate(570,726)" clip-path="url(#clipPath1)" stroke="none" xml:space="preserve">♂</text>
      <rect x="0" y="0" transform="translate(570,726)" fill="none" width="110" rx="7.5" ry="7.5" height="64" />
    </g>
    <g font-size="10" transform="matrix(1,0,0,1,0,64) translate(630,790)" fill="rgb(239,174,198)" font-family="sans-serif" stroke="rgb(239,174,198)" stroke-width="2">
      <rect x="0" y="0" width="100" rx="2.5" ry="2.5" height="27" stroke="none" />
      <rect x="0" y="0" fill="none" width="100" rx="2.5" ry="2.5" height="27" stroke="black" />
    </g>
    <g fill="rgb(239,174,198)" font-size="10" stroke-width="2" transform="matrix(1,0,0,1,0,64) translate(680,726)" stroke="rgb(239,174,198)">
      <rect x="0" y="0" width="110" rx="7.5" ry="7.5" height="64" stroke="none" />
    </g>
    <g stroke-width="2" font-weight="bold" transform="matrix(1,0,0,1,0,64) translate(680,726)">
      <text xml:space="preserve" x="55" y="14" clip-path="url(#clipPath1)" stroke="none"></text>
      <text xml:space="preserve" x="39" y="26" clip-path="url(#clipPath1)" stroke="none">Shen</text>
      <text x="96" font-size="10" y="59" clip-path="url(#clipPath1)" font-family="sans-serif" stroke="none" font-weight="normal" xml:space="preserve">♀</text>
      <rect x="0" y="0" fill="none" width="110" rx="7.5" ry="7.5" height="64" />
    </g>
    <g stroke-width="2" font-size="10" font-family="sans-serif" transform="matrix(1,0,0,1,0,64)">
      <line y2="716" fill="none" x1="570" x2="570" y1="706" />
      <line y2="716" fill="none" x1="515" x2="570" y1="716" />
      <rect x="0" y="0" transform="translate(460,615)" fill="rgb(255,221,221)" width="110" rx="7.5" ry="7.5" height="64" stroke="none" />
      <text x="17" font-size="12" y="14" transform="translate(460,615)" clip-path="url(#clipPath1)" font-family="&apos;Dialog&apos;" stroke="none" font-weight="bold" xml:space="preserve">YongChang</text>
      <text x="36" font-size="12" y="26" transform="translate(460,615)" clip-path="url(#clipPath1)" font-family="&apos;Dialog&apos;" stroke="none" font-weight="bold" xml:space="preserve">Wang</text>
      <text x="3" y="38" transform="translate(460,615)" clip-path="url(#clipPath1)" font-family="&apos;Dialog&apos;" stroke="none" xml:space="preserve">+</text>
      <text x="13" y="38" transform="translate(460,615)" clip-path="url(#clipPath1)" font-family="&apos;Dialog&apos;" stroke="none" xml:space="preserve">1983</text>
      <text x="96" y="59" transform="translate(460,615)" clip-path="url(#clipPath1)" stroke="none" xml:space="preserve">♂</text>
      <rect x="0" y="0" transform="translate(460,615)" fill="none" width="110" rx="7.5" ry="7.5" height="64" />
    </g>
    <g font-size="10" transform="matrix(1,0,0,1,0,64) translate(520,679)" fill="rgb(255,221,221)" font-family="sans-serif" stroke="rgb(255,221,221)" stroke-width="2">
      <rect x="0" y="0" width="100" rx="2.5" ry="2.5" height="27" stroke="none" />
      <rect x="0" y="0" fill="none" width="100" rx="2.5" ry="2.5" height="27" stroke="black" />
    </g>
    <g fill="rgb(255,221,221)" font-size="10" stroke-width="2" transform="matrix(1,0,0,1,0,64) translate(570,615)" stroke="rgb(255,221,221)">
      <rect x="0" y="0" width="110" rx="7.5" ry="7.5" height="64" stroke="none" />
    </g>
    <g stroke-width="2" font-weight="bold" transform="matrix(1,0,0,1,0,64) translate(570,615)">
      <text xml:space="preserve" x="26" y="14" clip-path="url(#clipPath1)" stroke="none">ShaoYue</text>
      <text xml:space="preserve" x="45" y="26" clip-path="url(#clipPath1)" stroke="none">Ma</text>
      <text x="3" font-size="10" y="38" clip-path="url(#clipPath1)" stroke="none" font-weight="normal" xml:space="preserve">+</text>
      <text x="13" font-size="10" y="38" clip-path="url(#clipPath1)" stroke="none" font-weight="normal" xml:space="preserve">Oct 2013</text>
      <text x="96" font-size="10" y="59" clip-path="url(#clipPath1)" font-family="sans-serif" stroke="none" font-weight="normal" xml:space="preserve">♀</text>
      <rect x="0" y="0" fill="none" width="110" rx="7.5" ry="7.5" height="64" />
    </g>
    <g stroke-width="2" font-size="10" font-family="sans-serif" transform="matrix(1,0,0,1,0,64)">
      <line y2="958" fill="none" x1="340" x2="340" y1="948" />
      <line y2="958" fill="none" x1="215" x2="400" y1="958" />
      <line y2="494" fill="none" x1="395" x2="395" y1="857" />
      <line y2="958" fill="none" x1="335" x2="335" y1="968" />
      <line y2="958" fill="none" x1="215" x2="215" y1="968" />
      <rect x="0" y="0" transform="translate(340,857)" fill="rgb(206,170,49)" width="110" rx="7.5" ry="7.5" height="64" stroke="none" />
      <text x="27" font-size="12" y="14" transform="translate(340,857)" clip-path="url(#clipPath1)" font-family="&apos;Dialog&apos;" stroke="none" font-weight="bold" xml:space="preserve">Brendan</text>
      <text x="29" font-size="12" y="26" transform="translate(340,857)" clip-path="url(#clipPath1)" font-family="&apos;Dialog&apos;" stroke="none" font-weight="bold" xml:space="preserve">Mooney</text>
      <text x="5" y="38" transform="translate(340,857)" clip-path="url(#clipPath1)" font-family="&apos;Dialog&apos;" stroke="none" xml:space="preserve">*</text>
      <text x="13" y="38" transform="translate(340,857)" clip-path="url(#clipPath1)" font-family="&apos;Dialog&apos;" stroke="none" xml:space="preserve">17 Nov 1954</text>
      <text x="96" y="59" transform="translate(340,857)" clip-path="url(#clipPath1)" stroke="none" xml:space="preserve">♂</text>
      <rect x="0" y="0" transform="translate(340,857)" fill="none" width="110" rx="7.5" ry="7.5" height="64" />
    </g>
    <g font-size="10" transform="matrix(1,0,0,1,0,64) translate(290,921)" fill="rgb(206,170,49)" font-family="sans-serif" stroke="rgb(206,170,49)" stroke-width="2">
      <rect x="0" y="0" width="100" rx="2.5" ry="2.5" height="27" stroke="none" />
      <rect x="0" y="0" fill="none" width="100" rx="2.5" ry="2.5" height="27" stroke="black" />
    </g>
    <g font-size="10" stroke-width="2" transform="matrix(1,0,0,1,0,64)">
      <line y2="847" fill="none" x1="285" x2="285" y1="857" />
      <rect x="0" y="0" transform="translate(230,857)" fill="rgb(206,170,49)" width="110" rx="7.5" ry="7.5" height="64" stroke="none" />
      <text x="34" font-size="12" y="14" transform="translate(230,857)" clip-path="url(#clipPath1)" stroke="none" font-weight="bold" xml:space="preserve">Esther</text>
      <text x="25" font-size="12" y="26" transform="translate(230,857)" clip-path="url(#clipPath1)" stroke="none" font-weight="bold" xml:space="preserve">Corcoran</text>
      <text x="5" y="38" transform="translate(230,857)" clip-path="url(#clipPath1)" stroke="none" xml:space="preserve">*</text>
      <text x="13" y="38" transform="translate(230,857)" clip-path="url(#clipPath1)" stroke="none" xml:space="preserve">28 Mar 1956</text>
      <text x="96" y="59" transform="translate(230,857)" clip-path="url(#clipPath1)" font-family="sans-serif" stroke="none" xml:space="preserve">♀</text>
      <rect x="0" y="0" transform="translate(230,857)" fill="none" width="110" rx="7.5" ry="7.5" height="64" />
    </g>
    <g stroke-width="2" font-size="10" font-family="sans-serif" transform="matrix(1,0,0,1,0,64)">
      <line y2="847" fill="none" x1="230" x2="230" y1="837" />
      <line y2="847" fill="none" x1="230" x2="285" y1="847" />
      <line y2="605" fill="none" x1="285" x2="285" y1="726" />
      <rect x="0" y="0" transform="translate(230,726)" fill="rgb(255,221,221)" width="110" rx="7.5" ry="7.5" height="84" stroke="none" />
      <text x="33" font-size="12" y="14" transform="translate(230,726)" clip-path="url(#clipPath2)" font-family="&apos;Dialog&apos;" stroke="none" font-weight="bold" xml:space="preserve">Martin</text>
      <text x="25" font-size="12" y="26" transform="translate(230,726)" clip-path="url(#clipPath2)" font-family="&apos;Dialog&apos;" stroke="none" font-weight="bold" xml:space="preserve">Corcoran</text>
      <text x="5" y="38" transform="translate(230,726)" clip-path="url(#clipPath2)" font-family="&apos;Dialog&apos;" stroke="none" xml:space="preserve">*</text>
      <text x="13" y="38" transform="translate(230,726)" clip-path="url(#clipPath2)" font-family="&apos;Dialog&apos;" stroke="none" xml:space="preserve">17 Apr 1915</text>
      <text x="13" y="48" transform="translate(230,726)" clip-path="url(#clipPath2)" font-family="&apos;Dialog&apos;" stroke="none" xml:space="preserve">Shannon Harbour</text>
      <text x="3" y="58" transform="translate(230,726)" clip-path="url(#clipPath2)" font-family="&apos;Dialog&apos;" stroke="none" xml:space="preserve">+</text>
      <text x="13" y="58" transform="translate(230,726)" clip-path="url(#clipPath2)" font-family="&apos;Dialog&apos;" stroke="none" xml:space="preserve">3 Oct 1986</text>
      <text x="13" y="68" transform="translate(230,726)" clip-path="url(#clipPath2)" font-family="&apos;Dialog&apos;" stroke="none" xml:space="preserve">Grange</text>
      <text x="96" y="79" transform="translate(230,726)" clip-path="url(#clipPath2)" stroke="none" xml:space="preserve">♂</text>
      <rect x="0" y="0" transform="translate(230,726)" fill="none" width="110" rx="7.5" ry="7.5" height="84" />
    </g>
    <g font-size="10" transform="matrix(1,0,0,1,0,64) translate(180,810)" fill="rgb(255,221,221)" font-family="sans-serif" stroke="rgb(255,221,221)" stroke-width="2">
      <rect x="0" y="0" width="100" rx="2.5" ry="2.5" height="27" stroke="none" />
      <rect x="0" y="0" fill="none" width="100" rx="2.5" ry="2.5" height="27" stroke="black" />
    </g>
    <g font-size="10" stroke-width="2" transform="matrix(1,0,0,1,0,64)">
      <line y2="716" fill="none" x1="175" x2="175" y1="726" />
      <rect x="0" y="0" transform="translate(120,726)" fill="rgb(255,221,221)" width="110" rx="7.5" ry="7.5" height="84" stroke="none" />
      <text x="39" font-size="12" y="14" transform="translate(120,726)" clip-path="url(#clipPath2)" stroke="none" font-weight="bold" xml:space="preserve">Dora</text>
      <text x="30" font-size="12" y="26" transform="translate(120,726)" clip-path="url(#clipPath2)" stroke="none" font-weight="bold" xml:space="preserve">Connell</text>
      <text x="5" y="38" transform="translate(120,726)" clip-path="url(#clipPath2)" stroke="none" xml:space="preserve">*</text>
      <text x="13" y="38" transform="translate(120,726)" clip-path="url(#clipPath2)" stroke="none" xml:space="preserve">1 Mar 1918</text>
      <text x="13" y="48" transform="translate(120,726)" clip-path="url(#clipPath2)" stroke="none" xml:space="preserve">Shannon Harbour</text>
      <text x="3" y="58" transform="translate(120,726)" clip-path="url(#clipPath2)" stroke="none" xml:space="preserve">+</text>
      <text x="13" y="58" transform="translate(120,726)" clip-path="url(#clipPath2)" stroke="none" xml:space="preserve">21 Aug 1996</text>
      <text x="13" y="68" transform="translate(120,726)" clip-path="url(#clipPath2)" stroke="none" xml:space="preserve">Grange</text>
      <text x="96" y="79" transform="translate(120,726)" clip-path="url(#clipPath2)" font-family="sans-serif" stroke="none" xml:space="preserve">♀</text>
      <rect x="0" y="0" transform="translate(120,726)" fill="none" width="110" rx="7.5" ry="7.5" height="84" />
    </g>
    <g stroke-width="2" font-size="10" font-family="sans-serif" transform="matrix(1,0,0,1,0,64)">
      <line y2="716" fill="none" x1="120" x2="120" y1="706" />
      <line y2="716" fill="none" x1="120" x2="175" y1="716" />
      <rect x="0" y="0" transform="translate(120,615)" fill="rgb(239,174,198)" width="110" rx="7.5" ry="7.5" height="64" stroke="none" />
      <text x="42" font-size="12" y="14" transform="translate(120,615)" clip-path="url(#clipPath1)" font-family="&apos;Dialog&apos;" stroke="none" font-weight="bold" xml:space="preserve">Dan</text>
      <text x="30" font-size="12" y="26" transform="translate(120,615)" clip-path="url(#clipPath1)" font-family="&apos;Dialog&apos;" stroke="none" font-weight="bold" xml:space="preserve">Connell</text>
      <text x="96" y="59" transform="translate(120,615)" clip-path="url(#clipPath1)" stroke="none" xml:space="preserve">♂</text>
      <rect x="0" y="0" transform="translate(120,615)" fill="none" width="110" rx="7.5" ry="7.5" height="64" />
    </g>
    <g font-size="10" transform="matrix(1,0,0,1,0,64) translate(70,679)" fill="rgb(239,174,198)" font-family="sans-serif" stroke="rgb(239,174,198)" stroke-width="2">
      <rect x="0" y="0" width="100" rx="2.5" ry="2.5" height="27" stroke="none" />
      <rect x="0" y="0" fill="none" width="100" rx="2.5" ry="2.5" height="27" stroke="black" />
    </g>
    <g fill="rgb(239,174,198)" font-size="10" stroke-width="2" transform="matrix(1,0,0,1,0,64) translate(10,615)" stroke="rgb(239,174,198)">
      <rect x="0" y="0" width="110" rx="7.5" ry="7.5" height="64" stroke="none" />
    </g>
    <g stroke-width="2" font-weight="bold" transform="matrix(1,0,0,1,0,64) translate(10,615)">
      <text xml:space="preserve" x="55" y="14" clip-path="url(#clipPath1)" stroke="none"></text>
      <text xml:space="preserve" x="39" y="26" clip-path="url(#clipPath1)" stroke="none">Kelly</text>
      <text x="96" font-size="10" y="59" clip-path="url(#clipPath1)" font-family="sans-serif" stroke="none" font-weight="normal" xml:space="preserve">♀</text>
      <rect x="0" y="0" fill="none" width="110" rx="7.5" ry="7.5" height="64" />
    </g>
    <g stroke-width="2" font-size="10" font-family="sans-serif" transform="matrix(1,0,0,1,0,64)">
      <line y2="605" fill="none" x1="230" x2="230" y1="595" />
      <line y2="605" fill="none" x1="230" x2="285" y1="605" />
      <rect x="0" y="0" transform="translate(230,504)" fill="rgb(239,174,198)" width="110" rx="7.5" ry="7.5" height="64" stroke="none" />
      <text x="37" font-size="12" y="14" transform="translate(230,504)" clip-path="url(#clipPath1)" font-family="&apos;Dialog&apos;" stroke="none" font-weight="bold" xml:space="preserve">Willie</text>
      <text x="25" font-size="12" y="26" transform="translate(230,504)" clip-path="url(#clipPath1)" font-family="&apos;Dialog&apos;" stroke="none" font-weight="bold" xml:space="preserve">Corcoran</text>
      <text x="5" y="38" transform="translate(230,504)" clip-path="url(#clipPath1)" font-family="&apos;Dialog&apos;" stroke="none" xml:space="preserve">*</text>
      <text x="13" y="38" transform="translate(230,504)" clip-path="url(#clipPath1)" font-family="&apos;Dialog&apos;" stroke="none" xml:space="preserve">Shannon Harbour</text>
      <text x="96" y="59" transform="translate(230,504)" clip-path="url(#clipPath1)" stroke="none" xml:space="preserve">♂</text>
      <rect x="0" y="0" transform="translate(230,504)" fill="none" width="110" rx="7.5" ry="7.5" height="64" />
    </g>
    <g font-size="10" transform="matrix(1,0,0,1,0,64) translate(180,568)" fill="rgb(239,174,198)" font-family="sans-serif" stroke="rgb(239,174,198)" stroke-width="2">
      <rect x="0" y="0" width="100" rx="2.5" ry="2.5" height="27" stroke="none" />
      <rect x="0" y="0" fill="none" width="100" rx="2.5" ry="2.5" height="27" stroke="black" />
    </g>
    <g fill="rgb(239,174,198)" font-size="10" stroke-width="2" transform="matrix(1,0,0,1,0,64) translate(120,504)" stroke="rgb(239,174,198)">
      <rect x="0" y="0" width="110" rx="7.5" ry="7.5" height="64" stroke="none" />
    </g>
    <g stroke-width="2" font-weight="bold" transform="matrix(1,0,0,1,0,64) translate(120,504)">
      <text xml:space="preserve" x="23" y="14" clip-path="url(#clipPath1)" stroke="none">Bridgette</text>
      <text xml:space="preserve" x="32" y="26" clip-path="url(#clipPath1)" stroke="none">Tanner</text>
      <text x="96" font-size="10" y="59" clip-path="url(#clipPath1)" font-family="sans-serif" stroke="none" font-weight="normal" xml:space="preserve">♀</text>
      <rect x="0" y="0" fill="none" width="110" rx="7.5" ry="7.5" height="64" />
    </g>
    <g stroke-width="2" font-size="10" font-family="sans-serif" transform="matrix(1,0,0,1,0,64)">
      <line y2="494" fill="none" x1="340" x2="340" y1="484" />
      <line y2="494" fill="none" x1="340" x2="395" y1="494" />
      <line y2="252" fill="none" x1="395" x2="395" y1="373" />
      <rect x="0" y="0" transform="translate(340,373)" fill="rgb(255,221,221)" width="110" rx="7.5" ry="7.5" height="84" stroke="none" />
      <text x="29" font-size="12" y="14" transform="translate(340,373)" clip-path="url(#clipPath2)" font-family="&apos;Dialog&apos;" stroke="none" font-weight="bold" xml:space="preserve">Seamus</text>
      <text x="29" font-size="12" y="26" transform="translate(340,373)" clip-path="url(#clipPath2)" font-family="&apos;Dialog&apos;" stroke="none" font-weight="bold" xml:space="preserve">Mooney</text>
      <text x="5" y="38" transform="translate(340,373)" clip-path="url(#clipPath2)" font-family="&apos;Dialog&apos;" stroke="none" xml:space="preserve">*</text>
      <text x="13" y="38" transform="translate(340,373)" clip-path="url(#clipPath2)" font-family="&apos;Dialog&apos;" stroke="none" xml:space="preserve">27 Nov 1927</text>
      <text x="13" y="48" transform="translate(340,373)" clip-path="url(#clipPath2)" font-family="&apos;Dialog&apos;" stroke="none" xml:space="preserve">8 Loretto Rd</text>
      <text x="3" y="58" transform="translate(340,373)" clip-path="url(#clipPath2)" font-family="&apos;Dialog&apos;" stroke="none" xml:space="preserve">+</text>
      <text x="13" y="58" transform="translate(340,373)" clip-path="url(#clipPath2)" font-family="&apos;Dialog&apos;" stroke="none" xml:space="preserve">21 Mar 1985</text>
      <text x="13" y="68" transform="translate(340,373)" clip-path="url(#clipPath2)" font-family="&apos;Dialog&apos;" stroke="none" xml:space="preserve">4 Wellmount Park</text>
      <text x="96" y="79" transform="translate(340,373)" clip-path="url(#clipPath2)" stroke="none" xml:space="preserve">♂</text>
      <rect x="0" y="0" transform="translate(340,373)" fill="none" width="110" rx="7.5" ry="7.5" height="84" />
    </g>
    <g font-size="10" transform="matrix(1,0,0,1,0,64) translate(290,457)" fill="rgb(255,221,221)" font-family="sans-serif" stroke="rgb(255,221,221)" stroke-width="2">
      <rect x="0" y="0" width="100" rx="2.5" ry="2.5" height="27" stroke="none" />
      <rect x="0" y="0" fill="none" width="100" rx="2.5" ry="2.5" height="27" stroke="black" />
    </g>
    <g font-size="10" stroke-width="2" transform="matrix(1,0,0,1,0,64)">
      <line y2="363" fill="none" x1="285" x2="285" y1="373" />
      <rect x="0" y="0" transform="translate(230,373)" fill="rgb(255,221,221)" width="110" rx="7.5" ry="7.5" height="84" stroke="none" />
      <text x="24" font-size="12" y="14" transform="translate(230,373)" clip-path="url(#clipPath2)" stroke="none" font-weight="bold" xml:space="preserve">Margaret</text>
      <text x="23" font-size="12" y="26" transform="translate(230,373)" clip-path="url(#clipPath2)" stroke="none" font-weight="bold" xml:space="preserve">Needham</text>
      <text x="5" y="38" transform="translate(230,373)" clip-path="url(#clipPath2)" stroke="none" xml:space="preserve">*</text>
      <text x="13" y="38" transform="translate(230,373)" clip-path="url(#clipPath2)" stroke="none" xml:space="preserve">8 Aug 1925</text>
      <text x="13" y="48" transform="translate(230,373)" clip-path="url(#clipPath2)" stroke="none" xml:space="preserve">Bricins Barracks</text>
      <text x="3" y="58" transform="translate(230,373)" clip-path="url(#clipPath2)" stroke="none" xml:space="preserve">+</text>
      <text x="13" y="58" transform="translate(230,373)" clip-path="url(#clipPath2)" stroke="none" xml:space="preserve">27 Oct 1999</text>
      <text x="13" y="68" transform="translate(230,373)" clip-path="url(#clipPath2)" stroke="none" xml:space="preserve">St Raphaels Manor</text>
      <text x="96" y="79" transform="translate(230,373)" clip-path="url(#clipPath2)" font-family="sans-serif" stroke="none" xml:space="preserve">♀</text>
      <rect x="0" y="0" transform="translate(230,373)" fill="none" width="110" rx="7.5" ry="7.5" height="84" />
    </g>
    <g stroke-width="2" font-size="10" font-family="sans-serif" transform="matrix(1,0,0,1,0,64)">
      <line y2="363" fill="none" x1="230" x2="230" y1="353" />
      <line y2="363" fill="none" x1="230" x2="285" y1="363" />
      <rect x="0" y="0" transform="translate(230,262)" fill="rgb(239,174,198)" width="110" rx="7.5" ry="7.5" height="64" stroke="none" />
      <text x="42" font-size="12" y="14" transform="translate(230,262)" clip-path="url(#clipPath1)" font-family="&apos;Dialog&apos;" stroke="none" font-weight="bold" xml:space="preserve">Jack</text>
      <text x="23" font-size="12" y="26" transform="translate(230,262)" clip-path="url(#clipPath1)" font-family="&apos;Dialog&apos;" stroke="none" font-weight="bold" xml:space="preserve">Needham</text>
      <text x="5" y="38" transform="translate(230,262)" clip-path="url(#clipPath1)" font-family="&apos;Dialog&apos;" stroke="none" xml:space="preserve">*</text>
      <text x="13" y="38" transform="translate(230,262)" clip-path="url(#clipPath1)" font-family="&apos;Dialog&apos;" stroke="none" xml:space="preserve">Tinahealy</text>
      <text x="96" y="59" transform="translate(230,262)" clip-path="url(#clipPath1)" stroke="none" xml:space="preserve">♂</text>
      <rect x="0" y="0" transform="translate(230,262)" fill="none" width="110" rx="7.5" ry="7.5" height="64" />
    </g>
    <g font-size="10" transform="matrix(1,0,0,1,0,64) translate(180,326)" fill="rgb(239,174,198)" font-family="sans-serif" stroke="rgb(239,174,198)" stroke-width="2">
      <rect x="0" y="0" width="100" rx="2.5" ry="2.5" height="27" stroke="none" />
      <rect x="0" y="0" fill="none" width="100" rx="2.5" ry="2.5" height="27" stroke="black" />
    </g>
    <g fill="rgb(239,174,198)" font-size="10" stroke-width="2" transform="matrix(1,0,0,1,0,64) translate(120,262)" stroke="rgb(239,174,198)">
      <rect x="0" y="0" width="110" rx="7.5" ry="7.5" height="64" stroke="none" />
    </g>
    <g stroke-width="2" font-weight="bold" transform="matrix(1,0,0,1,0,64) translate(120,262)">
      <text xml:space="preserve" x="42" y="14" clip-path="url(#clipPath1)" stroke="none">Ann</text>
      <text xml:space="preserve" x="29" y="26" clip-path="url(#clipPath1)" stroke="none">Johnson</text>
      <text x="5" font-size="10" y="38" clip-path="url(#clipPath1)" stroke="none" font-weight="normal" xml:space="preserve">*</text>
      <text x="13" font-size="10" y="38" clip-path="url(#clipPath1)" stroke="none" font-weight="normal" xml:space="preserve">Dublin</text>
      <text x="96" font-size="10" y="59" clip-path="url(#clipPath1)" font-family="sans-serif" stroke="none" font-weight="normal" xml:space="preserve">♀</text>
      <rect x="0" y="0" fill="none" width="110" rx="7.5" ry="7.5" height="64" />
    </g>
    <g stroke-width="2" font-size="10" font-family="sans-serif" transform="matrix(1,0,0,1,0,64)">
      <line y2="252" fill="none" x1="340" x2="340" y1="242" />
      <line y2="252" fill="none" x1="340" x2="395" y1="252" />
      <line y2="131" fill="none" x1="395" x2="395" y1="141" />
      <rect x="0" y="0" transform="translate(340,141)" fill="rgb(239,174,198)" width="110" rx="7.5" ry="7.5" height="74" stroke="none" />
      <text x="34" font-size="12" y="14" transform="translate(340,141)" clip-path="url(#clipPath3)" font-family="&apos;Dialog&apos;" stroke="none" font-weight="bold" xml:space="preserve">Simon</text>
      <text x="29" font-size="12" y="26" transform="translate(340,141)" clip-path="url(#clipPath3)" font-family="&apos;Dialog&apos;" stroke="none" font-weight="bold" xml:space="preserve">Mooney</text>
      <text x="5" y="38" transform="translate(340,141)" clip-path="url(#clipPath3)" font-family="&apos;Dialog&apos;" stroke="none" xml:space="preserve">*</text>
      <text x="13" y="38" transform="translate(340,141)" clip-path="url(#clipPath3)" font-family="&apos;Dialog&apos;" stroke="none" xml:space="preserve">8 Nov 1893</text>
      <text x="13" y="48" transform="translate(340,141)" clip-path="url(#clipPath3)" font-family="&apos;Dialog&apos;" stroke="none" xml:space="preserve">Termonfeckin</text>
      <text x="3" y="58" transform="translate(340,141)" clip-path="url(#clipPath3)" font-family="&apos;Dialog&apos;" stroke="none" xml:space="preserve">+</text>
      <text x="13" y="58" transform="translate(340,141)" clip-path="url(#clipPath3)" font-family="&apos;Dialog&apos;" stroke="none" xml:space="preserve">18 Sep 1961</text>
      <text x="96" y="69" transform="translate(340,141)" clip-path="url(#clipPath3)" stroke="none" xml:space="preserve">♂</text>
      <rect x="0" y="0" transform="translate(340,141)" fill="none" width="110" rx="7.5" ry="7.5" height="74" />
    </g>
    <g font-size="10" transform="matrix(1,0,0,1,0,64) translate(290,215)" fill="rgb(239,174,198)" font-family="sans-serif" stroke="rgb(239,174,198)" stroke-width="2">
      <rect x="0" y="0" width="100" rx="2.5" ry="2.5" height="27" stroke="none" />
      <rect x="0" y="0" fill="none" width="100" rx="2.5" ry="2.5" height="27" stroke="black" />
    </g>
    <g fill="rgb(239,174,198)" font-size="10" stroke-width="2" transform="matrix(1,0,0,1,0,64) translate(206,141)" stroke="rgb(239,174,198)">
      <rect x="0" y="0" width="134" rx="7.5" ry="7.5" height="74" stroke="none" />
    </g>
    <g stroke-width="2" font-weight="bold" transform="matrix(1,0,0,1,0,64) translate(206,141)">
      <text xml:space="preserve" x="51" y="14" clip-path="url(#clipPath4)" stroke="none">Mary</text>
      <text xml:space="preserve" x="40" y="26" clip-path="url(#clipPath4)" stroke="none">Leonard</text>
      <text x="5" font-size="10" y="38" clip-path="url(#clipPath4)" stroke="none" font-weight="normal" xml:space="preserve">*</text>
      <text x="13" font-size="10" y="38" clip-path="url(#clipPath4)" stroke="none" font-weight="normal" xml:space="preserve">Fairfield (Dolphins Barn)</text>
      <text x="120" font-size="10" y="69" clip-path="url(#clipPath4)" font-family="sans-serif" stroke="none" font-weight="normal" xml:space="preserve">♀</text>
      <rect x="0" y="0" fill="none" width="134" rx="7.5" ry="7.5" height="74" />
    </g>
    <g stroke-width="2" font-size="10" font-family="sans-serif" transform="matrix(1,0,0,1,0,64)">
      <line y2="131" fill="none" x1="340" x2="340" y1="121" />
      <line y2="131" fill="none" x1="340" x2="395" y1="131" />
      <rect x="0" y="0" transform="translate(340,10)" fill="rgb(255,130,181)" width="110" rx="7.5" ry="7.5" height="84" stroke="none" />
      <text x="29" font-size="12" y="14" transform="translate(340,10)" clip-path="url(#clipPath2)" font-family="&apos;Dialog&apos;" stroke="none" font-weight="bold" xml:space="preserve">Thomas</text>
      <text x="29" font-size="12" y="26" transform="translate(340,10)" clip-path="url(#clipPath2)" font-family="&apos;Dialog&apos;" stroke="none" font-weight="bold" xml:space="preserve">Mooney</text>
      <text x="5" y="38" transform="translate(340,10)" clip-path="url(#clipPath2)" font-family="&apos;Dialog&apos;" stroke="none" xml:space="preserve">*</text>
      <text x="13" y="38" transform="translate(340,10)" clip-path="url(#clipPath2)" font-family="&apos;Dialog&apos;" stroke="none" xml:space="preserve">22 Jan 1866</text>
      <text x="13" y="48" transform="translate(340,10)" clip-path="url(#clipPath2)" font-family="&apos;Dialog&apos;" stroke="none" xml:space="preserve">Termonfeckin</text>
      <text x="3" y="58" transform="translate(340,10)" clip-path="url(#clipPath2)" font-family="&apos;Dialog&apos;" stroke="none" xml:space="preserve">+</text>
      <text x="13" y="58" transform="translate(340,10)" clip-path="url(#clipPath2)" font-family="&apos;Dialog&apos;" stroke="none" xml:space="preserve">2 Jan 1900</text>
      <text x="13" y="68" transform="translate(340,10)" clip-path="url(#clipPath2)" font-family="&apos;Dialog&apos;" stroke="none" xml:space="preserve">Termonfeckin</text>
      <text x="96" y="79" transform="translate(340,10)" clip-path="url(#clipPath2)" stroke="none" xml:space="preserve">♂</text>
      <rect x="0" y="0" transform="translate(340,10)" fill="none" width="110" rx="7.5" ry="7.5" height="84" />
    </g>
    <g font-size="10" transform="matrix(1,0,0,1,0,64) translate(290,94)" fill="rgb(255,130,181)" font-family="sans-serif" stroke="rgb(255,130,181)" stroke-width="2">
      <rect x="0" y="0" width="100" rx="2.5" ry="2.5" height="27" stroke="none" />
      <rect x="0" y="0" fill="none" width="100" rx="2.5" ry="2.5" height="27" stroke="black" />
    </g>
    <g fill="rgb(255,130,181)" font-size="10" stroke-width="2" transform="matrix(1,0,0,1,0,64) translate(199,10)" stroke="rgb(255,130,181)">
      <rect x="0" y="0" width="141" rx="7.5" ry="7.5" height="84" stroke="none" />
    </g>
    <g stroke-width="2" font-weight="bold" transform="matrix(1,0,0,1,0,64) translate(199,10)">
      <text xml:space="preserve" x="54" y="14" clip-path="url(#clipPath5)" stroke="none">Mary</text>
      <text xml:space="preserve" x="40" y="26" clip-path="url(#clipPath5)" stroke="none">Reynolds</text>
      <text x="5" font-size="10" y="38" clip-path="url(#clipPath5)" stroke="none" font-weight="normal" xml:space="preserve">*</text>
      <text x="13" font-size="10" y="38" clip-path="url(#clipPath5)" stroke="none" font-weight="normal" xml:space="preserve">Betastown. Termonfeckin</text>
      <text x="3" font-size="10" y="48" clip-path="url(#clipPath5)" stroke="none" font-weight="normal" xml:space="preserve">+</text>
      <text x="13" font-size="10" y="48" clip-path="url(#clipPath5)" stroke="none" font-weight="normal" xml:space="preserve">Termonfeckin</text>
      <text x="127" font-size="10" y="79" clip-path="url(#clipPath5)" font-family="sans-serif" stroke="none" font-weight="normal" xml:space="preserve">♀</text>
      <rect x="0" y="0" fill="none" width="141" rx="7.5" ry="7.5" height="84" />
    </g>
    <g font-size="10" transform="matrix(1,0,0,1,0,64) translate(280,968)" fill="rgb(255,221,0)" font-family="sans-serif" stroke="rgb(255,221,0)" stroke-width="2">
      <rect x="0" y="0" width="110" rx="7.5" ry="7.5" height="64" stroke="none" />
    </g>
    <g stroke-width="2" font-weight="bold" transform="matrix(1,0,0,1,0,64) translate(280,968)">
      <text xml:space="preserve" x="38" y="14" clip-path="url(#clipPath1)" stroke="none">Ciara</text>
      <text xml:space="preserve" x="29" y="26" clip-path="url(#clipPath1)" stroke="none">Mooney</text>
      <text x="5" font-size="10" y="38" clip-path="url(#clipPath1)" stroke="none" font-weight="normal" xml:space="preserve">*</text>
      <text x="13" font-size="10" y="38" clip-path="url(#clipPath1)" stroke="none" font-weight="normal" xml:space="preserve">29 Mar 1983</text>
      <text x="96" font-size="10" y="59" clip-path="url(#clipPath1)" font-family="sans-serif" stroke="none" font-weight="normal" xml:space="preserve">♀</text>
      <rect x="0" y="0" fill="none" width="110" rx="7.5" ry="7.5" height="64" />
    </g>
    <g font-size="10" transform="matrix(1,0,0,1,0,64) translate(160,968)" fill="rgb(255,221,0)" font-family="sans-serif" stroke="rgb(255,221,0)" stroke-width="2">
      <rect x="0" y="0" width="110" rx="7.5" ry="7.5" height="64" stroke="none" />
    </g>
    <g stroke-width="2" font-weight="bold" transform="matrix(1,0,0,1,0,64) translate(160,968)">
      <text xml:space="preserve" x="37" y="14" clip-path="url(#clipPath1)" stroke="none">Kevin</text>
      <text xml:space="preserve" x="29" y="26" clip-path="url(#clipPath1)" stroke="none">Mooney</text>
      <text x="5" font-size="10" y="38" clip-path="url(#clipPath1)" stroke="none" font-weight="normal" xml:space="preserve">*</text>
      <text x="13" font-size="10" y="38" clip-path="url(#clipPath1)" stroke="none" font-weight="normal" xml:space="preserve">10 May 1987</text>
      <text x="13" font-size="10" y="48" clip-path="url(#clipPath1)" stroke="none" font-weight="normal" xml:space="preserve">Ballyfermot</text>
      <text x="96" font-size="10" y="59" clip-path="url(#clipPath1)" font-family="sans-serif" stroke="none" font-weight="normal" xml:space="preserve">♂</text>
      <rect x="0" y="0" fill="none" width="110" rx="7.5" ry="7.5" height="64" />
    </g>
    <g font-size="10" transform="matrix(1,0,0,1,0,64) translate(410,1190)" fill="rgb(255,255,51)" font-family="sans-serif" stroke="rgb(255,255,51)" stroke-width="2">
      <rect x="0" y="0" width="110" rx="7.5" ry="7.5" height="64" stroke="none" />
    </g>
    <g stroke-width="2" font-weight="bold" transform="matrix(1,0,0,1,0,64) translate(410,1190)">
      <text xml:space="preserve" x="29" y="14" clip-path="url(#clipPath1)" stroke="none">Jennifer</text>
      <text xml:space="preserve" x="29" y="26" clip-path="url(#clipPath1)" stroke="none">Mooney</text>
      <text x="5" font-size="10" y="38" clip-path="url(#clipPath1)" stroke="none" font-weight="normal" xml:space="preserve">*</text>
      <text x="13" font-size="10" y="38" clip-path="url(#clipPath1)" stroke="none" font-weight="normal" xml:space="preserve">16 Jan 2011</text>
      <text x="13" font-size="10" y="48" clip-path="url(#clipPath1)" stroke="none" font-weight="normal" xml:space="preserve">Celbridge</text>
      <text x="96" font-size="10" y="59" clip-path="url(#clipPath1)" font-family="sans-serif" stroke="none" font-weight="normal" xml:space="preserve">♀</text>
      <rect x="0" y="0" fill="none" width="110" rx="7.5" ry="7.5" height="64" />
    </g>
  </g>
</svg>
